<?xml version="1.0" encoding="utf-8"?>
<!-- Generator: Adobe Illustrator 16.0.0, SVG Export Plug-In . SVG Version: 6.00 Build 0)  -->
<!DOCTYPE svg PUBLIC "-//W3C//DTD SVG 1.1//EN" "http://www.w3.org/Graphics/SVG/1.1/DTD/svg11.dtd">
<svg version="1.1" id="Layer_1" xmlns="http://www.w3.org/2000/svg" xmlns:xlink="http://www.w3.org/1999/xlink" x="0px" y="0px"
	 width="20px" height="19.506px" viewBox="0 0 20 19.506" enable-background="new 0 0 20 19.506" xml:space="preserve">
<path fill-rule="evenodd" clip-rule="evenodd" fill="#CFD1C1" d="M10,0C4.478,0,0,4.477,0,10c0,4.418,2.865,8.167,6.839,9.489
	c0.5,0.092,0.683-0.218,0.683-0.483c0-0.236-0.009-0.865-0.014-1.699c-2.781,0.604-3.369-1.342-3.369-1.342
	c-0.455-1.154-1.11-1.463-1.11-1.463c-0.908-0.62,0.068-0.607,0.068-0.607c1.004,0.07,1.532,1.03,1.532,1.03
	c0.892,1.528,2.341,1.087,2.911,0.831c0.09-0.646,0.349-1.087,0.635-1.336C5.955,14.167,3.62,13.31,3.62,9.478
	c0-1.092,0.39-1.984,1.029-2.683c-0.103-0.253-0.446-1.27,0.098-2.646c0,0,0.839-0.269,2.75,1.024
	C8.295,4.951,9.15,4.84,10.001,4.836c0.849,0.004,1.705,0.115,2.503,0.336c1.909-1.293,2.747-1.024,2.747-1.024
	c0.545,1.376,0.203,2.394,0.1,2.646c0.64,0.699,1.027,1.591,1.027,2.683c0,3.841-2.338,4.687-4.566,4.934
	c0.359,0.31,0.679,0.92,0.679,1.853c0,1.337-0.012,2.415-0.012,2.742c0,0.269,0.18,0.58,0.688,0.481C17.138,18.164,20,14.417,20,10
	C20,4.477,15.523,0,10,0z"/>
<g>
</g>
<g>
</g>
<g>
</g>
<g>
</g>
<g>
</g>
<g>
</g>
</svg>
