<?xml version="1.0" encoding="utf-8"?>
<!-- Generator: Adobe Illustrator 16.0.0, SVG Export Plug-In . SVG Version: 6.00 Build 0)  -->
<!DOCTYPE svg PUBLIC "-//W3C//DTD SVG 1.1//EN" "http://www.w3.org/Graphics/SVG/1.1/DTD/svg11.dtd">
<svg version="1.1" id="Layer_1" xmlns="http://www.w3.org/2000/svg" xmlns:xlink="http://www.w3.org/1999/xlink" x="0px" y="0px"
	 width="226px" height="90px" viewBox="0 0 226 90" enable-background="new 0 0 226 90" xml:space="preserve">
<path fill="#5CD4D3" d="M3.566,57.122c1.097-1.288,2.42-1.259,3.968,0.098c0.709,0.581,1.563,1.113,2.564,1.597
	c0.999,0.483,2.208,0.725,3.628,0.725c1.742,0,3.193-0.386,4.354-1.159c1.161-0.776,1.742-1.807,1.742-3.098
	c0-1.224-0.5-2.29-1.5-3.192c-1.001-0.902-2.854-2.033-5.564-3.388c-1.742-0.836-3.29-1.708-4.645-2.614
	c-1.354-0.902-2.5-1.884-3.435-2.949c-0.936-1.065-1.662-2.241-2.177-3.532c-0.517-1.29-0.774-2.806-0.774-4.548
	c0-1.742,0.322-3.387,0.967-4.935c0.645-1.548,1.563-2.903,2.758-4.064c1.193-1.162,2.645-2.081,4.354-2.758
	c1.708-0.677,3.629-1.016,5.757-1.016c2.58,0,4.87,0.484,6.871,1.452c1.999,0.967,3.451,1.935,4.354,2.902
	c0.516,0.646,0.79,1.34,0.822,2.081c0.032,0.743-0.242,1.403-0.822,1.984l-1.742,1.838c-0.581,0.581-1.178,0.953-1.79,1.113
	c-0.614,0.162-1.243-0.08-1.887-0.726c-1.741-1.612-3.677-2.419-5.806-2.419c-1.871,0-3.241,0.421-4.112,1.258
	c-0.871,0.84-1.306,1.936-1.306,3.291c0,1.291,0.612,2.387,1.838,3.29c1.225,0.904,2.773,1.775,4.645,2.613
	c1.806,0.774,3.436,1.613,4.887,2.516c1.452,0.905,2.693,1.887,3.725,2.953c1.032,1.063,1.839,2.257,2.418,3.578
	c0.582,1.323,0.872,2.855,0.872,4.599c0,2.128-0.421,4.013-1.258,5.658c-0.839,1.646-1.952,3.035-3.338,4.163
	c-1.389,1.127-2.968,1.967-4.742,2.515c-1.775,0.548-3.565,0.822-5.37,0.822c-2.968,0-5.419-0.403-7.354-1.21
	c-1.936-0.805-3.483-1.887-4.645-3.239c-0.517-0.583-0.791-1.26-0.823-2.033c-0.033-0.776,0.242-1.452,0.823-2.033L3.566,57.122z"/>
<path fill="#5CD4D3" d="M50.291,66.798c-4.838,0-8.403-1.319-10.693-3.966c-2.29-2.646-3.435-6.321-3.435-11.031V32.448
	c0-0.645-0.323-0.968-0.968-0.968h-2.902c-0.905,0-1.613-0.257-2.129-0.774c-0.517-0.516-0.774-1.225-0.774-2.129v-2.419
	c0-0.902,0.257-1.611,0.774-2.128c0.516-0.516,1.225-0.774,2.129-0.774h2.902c0.645,0,0.968-0.322,0.968-0.968v-6.773
	c0-0.903,0.257-1.612,0.774-2.129c0.516-0.515,1.225-0.774,2.128-0.774h2.903c0.903,0,1.612,0.259,2.129,0.774
	c0.515,0.517,0.774,1.226,0.774,2.129v6.773c0,0.646,0.322,0.968,0.967,0.968h7.257c0.902,0,1.612,0.258,2.129,0.774
	C55.741,24.547,56,25.256,56,26.158v2.419c0,0.904-0.259,1.613-0.774,2.129c-0.518,0.517-1.227,0.774-2.129,0.774h-7.257
	c-0.645,0-0.967,0.323-0.967,0.968v18.869c0,2.258,0.435,4.031,1.307,5.321c0.87,1.291,2.53,1.936,4.982,1.936h1.936
	c0.902,0,1.612,0.258,2.129,0.774C55.741,59.865,56,60.574,56,61.477v2.421c0,0.902-0.259,1.612-0.774,2.127
	c-0.518,0.519-1.227,0.773-2.129,0.773H50.291z"/>
<path fill="#5CD4D3" d="M61.903,16.482c-0.904,0-1.613-0.257-2.128-0.774C59.257,15.193,59,14.483,59,13.58V8.742
	c0-0.903,0.257-1.612,0.774-2.129c0.515-0.515,1.225-0.774,2.128-0.774h2.903c0.903,0,1.611,0.259,2.129,0.774
	c0.515,0.518,0.774,1.226,0.774,2.129v4.838c0,0.904-0.259,1.613-0.774,2.128c-0.518,0.518-1.226,0.774-2.129,0.774H61.903z
	 M61.903,66.798c-0.904,0-1.613-0.255-2.128-0.773C59.257,65.51,59,64.8,59,63.897V26.158c0-0.902,0.257-1.611,0.774-2.128
	c0.515-0.516,1.225-0.774,2.128-0.774h2.903c0.903,0,1.611,0.258,2.129,0.774c0.515,0.517,0.774,1.226,0.774,2.128v37.739
	c0,0.902-0.259,1.612-0.774,2.127c-0.518,0.519-1.226,0.773-2.129,0.773H61.903z"/>
<path fill="#5CD4D3" d="M104.216,58.187c0.582,0.581,0.838,1.227,0.774,1.936c-0.065,0.71-0.355,1.388-0.871,2.031
	c-1.097,1.292-2.79,2.55-5.08,3.775c-2.291,1.225-4.92,1.838-7.886,1.838c-2.839,0-5.339-0.468-7.5-1.403
	c-2.162-0.934-3.983-2.192-5.467-3.775c-1.485-1.579-2.597-3.433-3.338-5.563c-0.742-2.129-1.113-4.354-1.113-6.676V39.706
	c0-2.322,0.402-4.548,1.21-6.677c0.805-2.128,1.967-3.983,3.483-5.564c1.516-1.58,3.339-2.838,5.467-3.774
	c2.128-0.934,4.547-1.403,7.257-1.403c2.644,0,4.999,0.469,7.064,1.403c2.063,0.936,3.773,2.081,5.128,3.435
	c0.581,0.581,0.871,1.258,0.871,2.032c0,0.774-0.29,1.452-0.871,2.032l-1.838,1.838c-1.226,1.227-2.549,1.194-3.967-0.097
	c-0.71-0.645-1.63-1.209-2.758-1.694c-1.128-0.484-2.338-0.726-3.628-0.726c-3.097,0-5.322,0.92-6.677,2.758
	c-1.354,1.838-2.032,3.983-2.032,6.435V50.35c0,1.226,0.146,2.405,0.436,3.531c0.29,1.129,0.773,2.113,1.451,2.953
	c0.677,0.838,1.563,1.499,2.661,1.982c1.096,0.483,2.482,0.725,4.161,0.725c1.677,0,3.128-0.354,4.354-1.063
	c1.225-0.71,2.191-1.386,2.902-2.033c1.484-1.225,2.837-1.225,4.064,0L104.216,58.187z"/>
<path fill="#5CD4D3" d="M136.158,66.798c-1.613,0-2.807-0.869-3.58-2.611l-9-19.062c-0.191-0.451-0.5-0.709-0.918-0.774
	c-0.422-0.063-0.822,0.097-1.209,0.483l-3.484,3.58c-0.387,0.386-0.695,0.791-0.92,1.21c-0.227,0.421-0.338,0.953-0.338,1.597
	v12.677c0,0.902-0.26,1.612-0.774,2.127c-0.519,0.519-1.227,0.773-2.129,0.773h-2.904c-0.903,0-1.613-0.255-2.129-0.773
	C108.256,65.51,108,64.8,108,63.897V3.903c0-0.902,0.256-1.611,0.773-2.128C109.29,1.259,110,1,110.902,1h2.904
	c0.902,0,1.61,0.259,2.129,0.774c0.514,0.517,0.774,1.226,0.774,2.128v32.319c0,0.517,0.145,0.856,0.436,1.016
	c0.289,0.162,0.629,0.048,1.016-0.338l11.902-12.096c0.516-0.515,1.031-0.902,1.549-1.161c0.516-0.257,1.223-0.387,2.127-0.387
	h5.131c1.096,0,1.756,0.355,1.982,1.064c0.225,0.711,0.014,1.388-0.629,2.033l-9.289,9.192c-1.162,1.097-1.451,2.291-0.871,3.58
	l11.707,24.192c0.451,0.967,0.484,1.789,0.098,2.465c-0.387,0.679-1.064,1.016-2.031,1.016H136.158z"/>
<path fill="#5CD4D3" d="M146.902,66.798c-0.904,0-1.613-0.255-2.129-0.773C144.258,65.51,144,64.8,144,63.897V39.222
	c0-4.708,1.354-8.546,4.064-11.515c2.709-2.967,6.482-4.451,11.32-4.451h3.484c0.902,0,1.611,0.258,2.129,0.774
	c0.514,0.517,0.773,1.226,0.773,2.128v2.419c0,0.904-0.26,1.613-0.773,2.129c-0.518,0.517-1.227,0.774-2.129,0.774h-2.902
	c-2.453,0-4.275,0.759-5.469,2.274c-1.193,1.516-1.789,3.499-1.789,5.951v24.192c0,0.902-0.258,1.612-0.773,2.127
	c-0.518,0.519-1.227,0.773-2.129,0.773H146.902z"/>
<g>
	<path fill="#D5D9C7" d="M170.138,66.798c-0.904,0-1.614-0.255-2.129-0.773c-0.518-0.515-0.775-1.225-0.775-2.127v-5.809
		c0-0.902,0.258-1.609,0.775-2.128c0.515-0.515,1.225-0.772,2.129-0.772h3.387c0.902,0,1.611,0.258,2.129,0.772
		c0.515,0.519,0.773,1.226,0.773,2.128v5.809c0,0.902-0.259,1.612-0.773,2.127c-0.518,0.519-1.227,0.773-2.129,0.773H170.138z"/>
	<path fill="#D5D9C7" d="M177.877,89.054c-0.902,0-1.612-0.257-2.129-0.773c-0.516-0.517-0.774-1.227-0.774-2.129v-2.419
		c0-0.904,0.259-1.613,0.774-2.128c0.517-0.517,1.227-0.774,2.129-0.774h0.969c1.74,0,3.063-0.55,3.967-1.645
		c0.901-1.1,1.353-2.647,1.353-4.646V26.158c0-0.902,0.258-1.611,0.775-2.128c0.516-0.516,1.225-0.774,2.129-0.774h2.903
		c0.902,0,1.61,0.258,2.128,0.774c0.516,0.517,0.773,1.226,0.773,2.128V74.54c0,4.452-1.241,7.984-3.725,10.596
		c-2.484,2.612-5.79,3.918-9.919,3.918H177.877z M187.069,16.482c-0.904,0-1.613-0.257-2.129-0.774
		c-0.518-0.515-0.775-1.225-0.775-2.128V8.742c0-0.903,0.258-1.612,0.775-2.129c0.516-0.515,1.225-0.774,2.129-0.774h2.903
		c0.902,0,1.61,0.259,2.128,0.774c0.516,0.518,0.773,1.226,0.773,2.129v4.838c0,0.904-0.258,1.613-0.773,2.128
		c-0.518,0.518-1.226,0.774-2.128,0.774H187.069z"/>
	<path fill="#D5D9C7" d="M200.034,57.122c1.097-1.288,2.42-1.259,3.968,0.098c0.709,0.581,1.563,1.113,2.564,1.597
		c0.999,0.483,2.209,0.725,3.629,0.725c1.741,0,3.192-0.386,4.354-1.159c1.16-0.776,1.741-1.807,1.741-3.098
		c0-1.224-0.5-2.29-1.499-3.192c-1.001-0.902-2.855-2.033-5.563-3.388c-1.743-0.836-3.29-1.708-4.646-2.614
		c-1.354-0.902-2.499-1.884-3.435-2.949s-1.661-2.241-2.177-3.532c-0.517-1.29-0.773-2.806-0.773-4.548
		c0-1.742,0.321-3.387,0.967-4.935c0.644-1.548,1.563-2.903,2.758-4.064c1.191-1.162,2.645-2.081,4.354-2.758
		c1.708-0.677,3.629-1.016,5.759-1.016c2.578,0,4.869,0.484,6.869,1.452c1.999,0.967,3.45,1.935,4.354,2.902
		c0.516,0.646,0.79,1.34,0.823,2.081c0.031,0.743-0.243,1.403-0.823,1.984l-1.741,1.838c-0.581,0.581-1.179,0.953-1.79,1.113
		c-0.615,0.162-1.242-0.08-1.887-0.726c-1.743-1.612-3.678-2.419-5.806-2.419c-1.872,0-3.242,0.421-4.114,1.258
		c-0.869,0.84-1.305,1.936-1.305,3.291c0,1.291,0.612,2.387,1.837,3.29c1.226,0.904,2.774,1.775,4.646,2.613
		c1.806,0.774,3.435,1.613,4.888,2.516c1.449,0.905,2.69,1.887,3.724,2.953c1.03,1.063,1.839,2.257,2.42,3.578
		c0.581,1.323,0.87,2.855,0.87,4.599c0,2.128-0.42,4.013-1.259,5.658c-0.839,1.646-1.951,3.035-3.337,4.163
		c-1.39,1.127-2.968,1.967-4.742,2.515s-3.564,0.822-5.369,0.822c-2.969,0-5.419-0.403-7.355-1.21
		c-1.934-0.805-3.482-1.887-4.645-3.239c-0.516-0.583-0.791-1.26-0.823-2.033c-0.032-0.776,0.243-1.452,0.823-2.033L200.034,57.122z
		"/>
</g>
</svg>
