<svg xmlns="http://www.w3.org/2000/svg" width="100" height="100" viewBox="0 0 100 100"><g fill="#CFD1C1"><path d="M62.838 74.173h-3.966V47.76c0-1.993-1.61-3.603-3.6-3.603h-9.817c-1.986 0-3.598 1.61-3.598 3.604v26.413h-3.972c-.908 0-1.736.534-2.118 1.354-.388.828-.25 1.803.335 2.498l10.63 12.496c.907 1.066 2.235 1.68 3.63 1.68 1.4 0 2.73-.612 3.636-1.68L64.62 78.026c.592-.695.724-1.67.342-2.498-.38-.82-1.21-1.354-2.124-1.354zM79.99 25.074c-.7-.058-1.344-.417-1.76-.982-4.027-5.453-10.496-8.818-17.38-8.818-.437 0-.876.013-1.314.04-.582.036-1.154-.138-1.618-.49-4.188-3.164-9.264-4.88-14.58-4.88-9.522 0-17.972 5.523-21.91 13.883-.353.746-1.058 1.264-1.874 1.377C9.057 26.664.948 35.697.948 46.59c0 11.902 9.685 21.587 21.59 21.587h15.32V59.67h-15.32c-7.214 0-13.083-5.868-13.083-13.082 0-7.215 5.87-13.083 13.083-13.083.364 0 .723.03 1.08.058 2.08.16 3.96-1.188 4.467-3.204 1.76-7.012 8.032-11.91 15.252-11.91 4.125 0 8.03 1.594 10.993 4.486 1.014.99 2.452 1.408 3.838 1.12.883-.183 1.786-.276 2.684-.276 5.05 0 9.563 2.84 11.772 7.41.776 1.607 2.476 2.565 4.252 2.382.442-.044.884-.066 1.313-.066 7.212 0 13.08 5.87 13.08 13.083 0 7.212-5.868 13.082-13.08 13.082H62.87v8.506h15.315c11.905 0 21.59-9.686 21.59-21.588 0-11.298-8.72-20.597-19.786-21.516z"/></g></svg>