<svg xmlns="http://www.w3.org/2000/svg" width="20" height="19.506" viewBox="0 0 20 19.506"><path fill-rule="evenodd" clip-rule="evenodd" fill="#CFD1C1" d="M10 0C4.478 0 0 4.477 0 10c0 4.418 2.865 8.167 6.84 9.49.5.09.682-.22.682-.484 0-.236-.01-.865-.014-1.7-2.78.605-3.37-1.34-3.37-1.34C3.685 14.81 3.03 14.5 3.03 14.5c-.907-.62.07-.607.07-.607 1.003.07 1.53 1.03 1.53 1.03.893 1.528 2.342 1.087 2.912.83.09-.645.35-1.086.635-1.335-2.22-.253-4.555-1.11-4.555-4.942 0-1.092.39-1.984 1.03-2.683-.104-.253-.447-1.27.097-2.646 0 0 .84-.27 2.75 1.023C8.295 4.95 9.15 4.84 10 4.836c.85.004 1.706.115 2.504.336 1.91-1.293 2.747-1.024 2.747-1.024.546 1.376.204 2.394.1 2.646.64.7 1.028 1.59 1.028 2.683 0 3.84-2.338 4.687-4.566 4.934.36.31.68.92.68 1.854 0 1.337-.013 2.415-.013 2.742 0 .27.18.58.687.48C17.137 18.165 20 14.417 20 10c0-5.523-4.477-10-10-10z"/></svg>