<svg xmlns="http://www.w3.org/2000/svg" width="14" height="13" viewBox="0 0 14 13"><path fill="#A3A29B" d="M10.604 7.833h-.447c-.066 0-.117.02-.16.064-.04.04-.063.096-.063.16v1.44c0 .307-.107 1.025-.328 1.242-.217.22-.482.327-.79.327H3.01c-.308 0-.57-.107-.79-.328-.218-.218-.327-.48-.327-.788V4.915c0-.307.11-.57.328-.788.22-.22.483-.33.79-.33h2.912c.066 0 .12-.02.16-.062.043-.042.064-.095.064-.16v-.448c0-.064-.02-.118-.064-.16-.04-.043-.094-.063-.16-.063H3.01c-.554 0-1.028.197-1.42.59-.395.395-.59.868-.59 1.42v5.038c0 .554.195 1.025.59 1.417.392.395.866.59 1.42.59h5.806c.555 0 1.025-.194 1.422-.59.393-.393.59-1.32.59-1.873v-1.44c0-.064-.023-.12-.064-.16-.04-.044-.096-.064-.16-.064zM12.627 1.13c-.088-.087-.19-.13-.31-.13H8.815c-.117 0-.22.043-.306.13-.088.087-.13.19-.13.308s.042.22.13.308L9.71 2.95 5.25 7.413c-.047.046-.07.098-.07.158s.023.112.07.157l.78.78c.044.045.097.068.157.068s.11-.023.158-.07l4.46-4.46 1.206 1.205c.087.086.19.13.308.13s.22-.043.31-.13c.085-.086.128-.19.128-.308V1.438c0-.12-.043-.22-.13-.308z"/></svg>