<svg xmlns="http://www.w3.org/2000/svg" width="226" height="90" viewBox="0 0 226 90"><path fill="#5CD4D3" d="M3.566 57.122c1.097-1.288 2.42-1.26 3.968.098.71.58 1.563 1.113 2.564 1.597 1 .483 2.208.725 3.628.725 1.742 0 3.193-.386 4.354-1.16 1.16-.775 1.742-1.806 1.742-3.097 0-1.224-.5-2.29-1.5-3.192-1-.902-2.854-2.033-5.564-3.388-1.742-.836-3.29-1.708-4.645-2.614-1.354-.9-2.5-1.883-3.435-2.948-.936-1.065-1.662-2.24-2.177-3.532-.516-1.29-.773-2.806-.773-4.548s.322-3.387.967-4.935c.645-1.548 1.563-2.903 2.758-4.064 1.193-1.162 2.645-2.08 4.354-2.758 1.708-.677 3.63-1.016 5.757-1.016 2.58 0 4.87.483 6.87 1.45 2 .968 3.452 1.936 4.355 2.903.516.646.79 1.34.822 2.08.032.744-.242 1.404-.822 1.985l-1.742 1.838c-.58.58-1.178.953-1.79 1.113-.614.16-1.243-.08-1.887-.727-1.742-1.612-3.678-2.42-5.807-2.42-1.87 0-3.24.422-4.112 1.26-.87.84-1.305 1.935-1.305 3.29 0 1.29.612 2.387 1.838 3.29 1.225.904 2.773 1.775 4.645 2.613 1.806.774 3.436 1.613 4.887 2.516 1.452.905 2.693 1.887 3.725 2.953 1.032 1.063 1.84 2.257 2.418 3.578.582 1.323.872 2.855.872 4.6 0 2.127-.42 4.012-1.258 5.657-.84 1.646-1.952 3.035-3.338 4.163-1.39 1.127-2.968 1.967-4.742 2.515-1.775.548-3.565.822-5.37.822-2.968 0-5.42-.403-7.354-1.21-1.936-.805-3.483-1.887-4.645-3.24-.517-.582-.79-1.26-.823-2.032-.033-.776.242-1.452.823-2.033l1.743-2.133zM50.29 66.798c-4.837 0-8.402-1.32-10.692-3.966-2.29-2.646-3.435-6.32-3.435-11.03V32.447c0-.645-.323-.968-.968-.968h-2.902c-.905 0-1.613-.257-2.13-.774-.516-.516-.773-1.225-.773-2.13V26.16c0-.902.257-1.61.774-2.128.516-.516 1.225-.774 2.13-.774h2.9c.646 0 .97-.322.97-.968v-6.773c0-.903.256-1.612.773-2.13.516-.514 1.225-.773 2.128-.773h2.903c.903 0 1.612.26 2.13.774.514.517.773 1.226.773 2.13v6.772c0 .646.323.968.968.968h7.257c.902 0 1.612.258 2.13.774.516.517.775 1.226.775 2.128v2.42c0 .903-.26 1.612-.774 2.128-.518.517-1.227.774-2.13.774H45.84c-.645 0-.967.323-.967.968v18.87c0 2.257.435 4.03 1.307 5.32.87 1.29 2.53 1.936 4.982 1.936h1.936c.902 0 1.612.258 2.13.774.513.517.772 1.226.772 2.13v2.42c0 .902-.26 1.612-.774 2.127-.518.52-1.227.773-2.13.773h-2.805zM61.903 16.482c-.904 0-1.613-.257-2.128-.774-.518-.515-.775-1.225-.775-2.128V8.742c0-.903.257-1.612.774-2.13C60.29 6.1 61 5.84 61.902 5.84h2.903c.903 0 1.61.258 2.13.773.514.518.773 1.226.773 2.13v4.837c0 .904-.26 1.613-.774 2.128-.518.518-1.226.774-2.13.774h-2.9zm0 50.316c-.904 0-1.613-.255-2.128-.773C59.257 65.51 59 64.8 59 63.897v-37.74c0-.9.257-1.61.774-2.127.515-.516 1.225-.774 2.128-.774h2.903c.903 0 1.61.258 2.13.774.514.517.773 1.226.773 2.128v37.74c0 .9-.26 1.61-.774 2.126-.518.52-1.226.773-2.13.773h-2.9zM104.216 58.187c.582.58.838 1.227.774 1.936-.065.71-.355 1.388-.87 2.03-1.098 1.293-2.79 2.55-5.08 3.776-2.292 1.224-4.92 1.837-7.887 1.837-2.84 0-5.34-.468-7.5-1.403-2.162-.934-3.983-2.192-5.467-3.775-1.485-1.58-2.597-3.434-3.338-5.564-.742-2.13-1.113-4.354-1.113-6.676V39.706c0-2.322.402-4.548 1.21-6.677.805-2.13 1.967-3.984 3.483-5.565 1.516-1.58 3.34-2.838 5.467-3.774 2.128-.933 4.547-1.402 7.257-1.402 2.644 0 5 .47 7.064 1.403 2.063.937 3.773 2.082 5.128 3.436.58.58.87 1.258.87 2.032s-.29 1.452-.87 2.032l-1.838 1.838c-1.226 1.227-2.55 1.194-3.967-.097-.71-.644-1.63-1.208-2.76-1.693-1.127-.484-2.337-.726-3.627-.726-3.097 0-5.322.92-6.677 2.76-1.354 1.837-2.032 3.982-2.032 6.434V50.35c0 1.226.146 2.405.436 3.53.29 1.13.773 2.114 1.45 2.954.678.838 1.564 1.5 2.662 1.982 1.096.483 2.482.725 4.16.725s3.13-.353 4.355-1.062c1.225-.71 2.19-1.386 2.902-2.033 1.483-1.225 2.836-1.225 4.063 0l1.743 1.742zM136.158 66.798c-1.613 0-2.807-.87-3.58-2.61l-9-19.063c-.19-.45-.5-.71-.918-.774-.422-.062-.822.098-1.21.484l-3.483 3.58c-.387.386-.695.79-.92 1.21-.227.42-.338.953-.338 1.597V63.9c0 .902-.26 1.612-.775 2.127-.52.52-1.227.773-2.13.773h-2.903c-.903 0-1.613-.255-2.13-.773-.516-.515-.772-1.225-.772-2.128V3.903c0-.902.256-1.61.773-2.128C109.29 1.26 110 1 110.903 1h2.903c.902 0 1.61.26 2.13.774.513.517.773 1.226.773 2.128v32.32c0 .516.144.855.435 1.015.29.162.63.048 1.016-.338l11.903-12.097c.516-.515 1.03-.902 1.55-1.16.515-.258 1.222-.388 2.126-.388h5.13c1.096 0 1.756.355 1.982 1.064.225.71.014 1.387-.63 2.032l-9.288 9.192c-1.162 1.097-1.45 2.29-.87 3.58l11.706 24.192c.45.967.484 1.79.098 2.465-.387.68-1.064 1.017-2.03 1.017h-3.68zM146.902 66.798c-.904 0-1.613-.255-2.13-.773-.514-.515-.772-1.225-.772-2.128V39.222c0-4.708 1.354-8.546 4.064-11.515 2.71-2.967 6.482-4.45 11.32-4.45h3.484c.902 0 1.61.257 2.13.773.513.517.772 1.226.772 2.128v2.42c0 .903-.26 1.612-.773 2.128-.518.517-1.227.774-2.13.774h-2.9c-2.454 0-4.276.76-5.47 2.274-1.193 1.516-1.79 3.5-1.79 5.95v24.193c0 .902-.257 1.612-.772 2.127-.518.52-1.227.773-2.13.773h-2.903z"/><g fill="#D5D9C7"><path d="M170.138 66.798c-.904 0-1.614-.255-2.13-.773-.517-.515-.774-1.225-.774-2.127v-5.81c0-.9.258-1.608.775-2.127.514-.514 1.224-.77 2.128-.77h3.387c.902 0 1.61.257 2.13.77.514.52.772 1.227.772 2.13v5.808c0 .902-.26 1.612-.773 2.127-.518.52-1.227.773-2.13.773h-3.386zM177.877 89.054c-.902 0-1.612-.257-2.13-.773-.515-.516-.773-1.226-.773-2.128v-2.42c0-.903.26-1.612.774-2.127.517-.517 1.227-.774 2.13-.774h.968c1.74 0 3.063-.55 3.967-1.644.9-1.1 1.353-2.647 1.353-4.646V26.158c0-.902.258-1.61.775-2.128.517-.516 1.226-.774 2.13-.774h2.903c.902 0 1.61.258 2.128.774.517.517.774 1.226.774 2.128V74.54c0 4.452-1.24 7.984-3.725 10.596-2.485 2.612-5.79 3.918-9.92 3.918h-1.353zm9.192-72.572c-.905 0-1.614-.257-2.13-.774-.518-.515-.775-1.225-.775-2.128V8.742c0-.903.258-1.612.775-2.13.516-.514 1.225-.773 2.13-.773h2.902c.902 0 1.61.258 2.128.773.516.518.773 1.226.773 2.13v4.837c0 .904-.258 1.613-.773 2.128-.518.518-1.226.774-2.128.774h-2.903zM200.034 57.122c1.097-1.288 2.42-1.26 3.968.098.71.58 1.563 1.113 2.564 1.597 1 .483 2.21.725 3.63.725 1.74 0 3.19-.386 4.353-1.16 1.16-.775 1.74-1.806 1.74-3.097 0-1.224-.5-2.29-1.5-3.192-1-.902-2.854-2.033-5.562-3.388-1.743-.836-3.29-1.708-4.646-2.614-1.354-.9-2.5-1.883-3.435-2.948s-1.66-2.24-2.177-3.532c-.517-1.29-.773-2.806-.773-4.548s.32-3.387.967-4.935c.644-1.548 1.563-2.903 2.758-4.064 1.19-1.162 2.645-2.08 4.354-2.758 1.708-.677 3.63-1.016 5.76-1.016 2.577 0 4.868.483 6.868 1.45 2 .968 3.45 1.936 4.354 2.903.516.646.79 1.34.823 2.08.032.744-.242 1.404-.822 1.985l-1.74 1.838c-.582.58-1.18.953-1.79 1.113-.616.16-1.243-.08-1.888-.727-1.743-1.612-3.678-2.42-5.806-2.42-1.872 0-3.242.422-4.114 1.26-.87.84-1.305 1.935-1.305 3.29 0 1.29.612 2.387 1.837 3.29 1.226.904 2.774 1.775 4.646 2.613 1.806.774 3.435 1.613 4.888 2.516 1.45.905 2.69 1.887 3.724 2.953 1.03 1.063 1.84 2.257 2.42 3.578.58 1.323.87 2.855.87 4.6 0 2.127-.42 4.012-1.26 5.657-.838 1.646-1.95 3.035-3.336 4.163-1.39 1.127-2.968 1.967-4.742 2.515s-3.564.822-5.37.822c-2.968 0-5.418-.403-7.354-1.21-1.934-.805-3.482-1.887-4.645-3.24-.516-.582-.79-1.26-.823-2.032-.032-.776.243-1.452.823-2.033l1.74-2.133z"/></g></svg>